ffmpeg started on 2025-05-26 at 19:26:22
Report written to "D:\Convert\FFMetrics\reports\psnr_report-6.txt"
Log level: 32
Command line:
ffmpeg -hide_banner -nostdin -i "G:\\\xc0\xed\xe8\xec\xe5\\\xce\xed\xe3\xee\xe8\xed\xe3\xe8\\!_34_\xc2\xe5\xf1\xed\xe0_2024\\DreamCast\\\xcc\xee\xe9 \xf1\xee\xf1\xe5\xe4-\xb8\xea\xe0\xe9\\[DC] Tonari no Youkai-san - 12_Telegram_HEVC.mkv" -i "G:\\\xc0\xed\xe8\xec\xe5\\\xce\xed\xe3\xee\xe8\xed\xe3\xe8\\!_34_\xc2\xe5\xf1\xed\xe0_2024\\DreamCast\\\xcc\xee\xe9 \xf1\xee\xf1\xe5\xe4-\xb8\xea\xe0\xe9\\[DC] Tonari no Youkai-san - 12_Telegram.mp4" -lavfi "[0:v]settb=AVTB,setpts=PTS-STARTPTS,format=pix_fmts=yuv420p10,fps=24000/1001,scale=1920:1080:flags=bicubic[main];[1:v]settb=AVTB,setpts=PTS-STARTPTS,format=pix_fmts=yuv420p,fps=24000/1001,scale=1920:1080:flags=bicubic[ref];[main][ref]psnr=eof_action=endall:stats_file='D\\:/Convert/FFMetrics/logs/psnr_logfile-6.txt'" -f null -
Input #0, matroska,webm, from 'G:\Аниме\Онгоинги\!_34_Весна_2024\DreamCast\Мой сосед-ёкай\[DC] Tonari no Youkai-san - 12_Telegram_HEVC.mkv':
  Metadata:
    COMPATIBLE_BRANDS: isomiso2avc1mp41
    MAJOR_BRAND     : isom
    MINOR_VERSION   : 512
    ENCODER         : Lavf61.7.100
  Duration: 00:23:46.69, start: -0.021000, bitrate: 1200 kb/s
  Stream #0:0: Video: hevc (Main 10), yuv420p10le(tv, bt709, progressive), 1920x1080 [SAR 1:1 DAR 16:9], 23.98 fps, 23.98 tbr, 1k tbn (default)
      Metadata:
        HANDLER_NAME    : VideoHandler
        VENDOR_ID       : [0][0][0][0]
        ENCODER         : Lavc61.19.100 libx265
        BPS             : 1003065
        DURATION        : 00:23:46.508708333
        NUMBER_OF_FRAMES: 34202
        NUMBER_OF_BYTES : 178860133
        _STATISTICS_WRITING_APP: mkvpropedit v66.0.0 ('Josie') 64-bit
        _STATISTICS_WRITING_DATE_UTC: 2025-05-26 14:36:57
        _STATISTICS_TAGS: BPS DURATION NUMBER_OF_FRAMES NUMBER_OF_BYTES
  Stream #0:1: Audio: aac (LC), 48000 Hz, stereo, fltp (default)
      Metadata:
        HANDLER_NAME    : SoundHandler
        VENDOR_ID       : [0][0][0][0]
        ENCODER         : Lavc61.19.100 aac
        BPS             : 193620
        DURATION        : 00:23:46.688000000
        NUMBER_OF_FRAMES: 66877
        NUMBER_OF_BYTES : 34529419
        _STATISTICS_WRITING_APP: mkvpropedit v66.0.0 ('Josie') 64-bit
        _STATISTICS_WRITING_DATE_UTC: 2025-05-26 14:36:57
        _STATISTICS_TAGS: BPS DURATION NUMBER_OF_FRAMES NUMBER_OF_BYTES
Input #1, mov,mp4,m4a,3gp,3g2,mj2, from 'G:\Аниме\Онгоинги\!_34_Весна_2024\DreamCast\Мой сосед-ёкай\[DC] Tonari no Youkai-san - 12_Telegram.mp4':
  Metadata:
    major_brand     : isom
    minor_version   : 512
    compatible_brands: isomiso2avc1mp41
    encoder         : Lavf60.16.100
  Duration: 00:23:46.63, start: 0.000000, bitrate: 3788 kb/s
  Stream #1:0[0x1](und): Video: h264 (High) (avc1 / 0x31637661), yuv420p(tv, bt709, progressive), 1920x1080 [SAR 1:1 DAR 16:9], 3640 kb/s, 23.98 fps, 23.98 tbr, 24k tbn (default)
      Metadata:
        handler_name    : VideoHandler
        vendor_id       : [0][0][0][0]
        encoder         : Lavc60.31.102 h264_qsv
  Stream #1:1[0x2](und): Audio: aac (HE-AACv2) (mp4a / 0x6134706D), 48000 Hz, stereo, fltp, 144 kb/s (default)
      Metadata:
        handler_name    : SoundHandler
        vendor_id       : [0][0][0][0]
Stream mapping:
  Stream #0:0 (hevc) -> settb:default
  Stream #1:0 (h264) -> settb:default
  psnr:default -> Stream #0:0 (wrapped_avframe)
  Stream #0:1 -> #0:1 (aac (native) -> pcm_s16le (native))
Output #0, null, to 'pipe:':
  Metadata:
    COMPATIBLE_BRANDS: isomiso2avc1mp41
    MAJOR_BRAND     : isom
    MINOR_VERSION   : 512
    encoder         : Lavf61.7.100
  Stream #0:0: Video: wrapped_avframe, yuv420p10le(tv, bt709, progressive), 1920x1080 [SAR 1:1 DAR 16:9], q=2-31, 200 kb/s, 23.98 fps, 23.98 tbn
      Metadata:
        encoder         : Lavc61.19.100 wrapped_avframe
  Stream #0:1: Audio: pcm_s16le, 48000 Hz, stereo, s16, 1536 kb/s (default)
      Metadata:
        HANDLER_NAME    : SoundHandler
        VENDOR_ID       : [0][0][0][0]
        _STATISTICS_TAGS: BPS DURATION NUMBER_OF_FRAMES NUMBER_OF_BYTES
        BPS             : 193620
        DURATION        : 00:23:46.688000000
        NUMBER_OF_FRAMES: 66877
        NUMBER_OF_BYTES : 34529419
        _STATISTICS_WRITING_APP: mkvpropedit v66.0.0 ('Josie') 64-bit
        _STATISTICS_WRITING_DATE_UTC: 2025-05-26 14:36:57
        encoder         : Lavc61.19.100 pcm_s16le
frame=  183 fps=0.0 q=-0.0 size=N/A time=00:00:07.63 bitrate=N/A speed=  15x    frame=  404 fps=391 q=-0.0 size=N/A time=00:00:16.85 bitrate=N/A speed=16.3x    frame=  595 fps=385 q=-0.0 size=N/A time=00:00:24.81 bitrate=N/A speed=16.1x    frame=  790 fps=384 q=-0.0 size=N/A time=00:00:32.94 bitrate=N/A speed=  16x    frame= 1004 fps=391 q=-0.0 size=N/A time=00:00:41.87 bitrate=N/A speed=16.3x    frame= 1213 fps=393 q=-0.0 size=N/A time=00:00:50.59 bitrate=N/A speed=16.4x    frame= 1435 fps=398 q=-0.0 size=N/A time=00:00:59.85 bitrate=N/A speed=16.6x    frame= 1644 fps=400 q=-0.0 size=N/A time=00:01:08.56 bitrate=N/A speed=16.7x    frame= 1852 fps=399 q=-0.0 size=N/A time=00:01:17.24 bitrate=N/A speed=16.7x    frame= 2047 fps=398 q=-0.0 size=N/A time=00:01:25.37 bitrate=N/A speed=16.6x    frame= 2240 fps=395 q=-0.0 size=N/A time=00:01:33.42 bitrate=N/A speed=16.5x    frame= 2468 fps=399 q=-0.0 size=N/A time=00:01:42.93 bitrate=N/A speed=16.6x    frame= 2654 fps=396 q=-0.0 size=N/A time=00:01:50.69 bitrate=N/A speed=16.5x    frame= 2908 fps=403 q=-0.0 size=N/A time=00:02:01.28 bitrate=N/A speed=16.8x    frame= 3144 fps=406 q=-0.0 size=N/A time=00:02:11.13 bitrate=N/A speed=16.9x    frame= 3346 fps=405 q=-0.0 size=N/A time=00:02:19.55 bitrate=N/A speed=16.9x    frame= 3574 fps=407 q=-0.0 size=N/A time=00:02:29.06 bitrate=N/A speed=  17x    frame= 3794 fps=409 q=-0.0 size=N/A time=00:02:38.24 bitrate=N/A speed=  17x    frame= 4007 fps=409 q=-0.0 size=N/A time=00:02:47.12 bitrate=N/A speed=  17x    frame= 4207 fps=408 q=-0.0 size=N/A time=00:02:55.46 bitrate=N/A speed=  17x    frame= 4432 fps=409 q=-0.0 size=N/A time=00:03:04.85 bitrate=N/A speed=17.1x    frame= 4680 fps=412 q=-0.0 size=N/A time=00:03:15.19 bitrate=N/A speed=17.2x    frame= 4891 fps=412 q=-0.0 size=N/A time=00:03:23.99 bitrate=N/A speed=17.2x    frame= 5166 fps=417 q=-0.0 size=N/A time=00:03:35.46 bitrate=N/A speed=17.4x    frame= 5443 fps=422 q=-0.0 size=N/A time=00:03:47.01 bitrate=N/A speed=17.6x    frame= 5724 fps=427 q=-0.0 size=N/A time=00:03:58.73 bitrate=N/A speed=17.8x    frame= 6012 fps=431 q=-0.0 size=N/A time=00:04:10.75 bitrate=N/A speed=  18x    frame= 6281 fps=435 q=-0.0 size=N/A time=00:04:21.97 bitrate=N/A speed=18.1x    frame= 6559 fps=438 q=-0.0 size=N/A time=00:04:33.56 bitrate=N/A speed=18.3x    frame= 6803 fps=440 q=-0.0 size=N/A time=00:04:43.74 bitrate=N/A speed=18.3x    frame= 7063 fps=442 q=-0.0 size=N/A time=00:04:54.58 bitrate=N/A speed=18.4x    frame= 7328 fps=444 q=-0.0 size=N/A time=00:05:05.63 bitrate=N/A speed=18.5x    frame= 7544 fps=443 q=-0.0 size=N/A time=00:05:14.64 bitrate=N/A speed=18.5x    frame= 7778 fps=443 q=-0.0 size=N/A time=00:05:24.40 bitrate=N/A speed=18.5x    frame= 8006 fps=443 q=-0.0 size=N/A time=00:05:33.91 bitrate=N/A speed=18.5x    frame= 8251 fps=444 q=-0.0 size=N/A time=00:05:44.13 bitrate=N/A speed=18.5x    frame= 8426 fps=442 q=-0.0 size=N/A time=00:05:51.43 bitrate=N/A speed=18.4x    frame= 8650 fps=441 q=-0.0 size=N/A time=00:06:00.77 bitrate=N/A speed=18.4x    frame= 8880 fps=441 q=-0.0 size=N/A time=00:06:10.37 bitrate=N/A speed=18.4x    frame= 9134 fps=443 q=-0.0 size=N/A time=00:06:20.96 bitrate=N/A speed=18.5x    frame= 9409 fps=445 q=-0.0 size=N/A time=00:06:32.43 bitrate=N/A speed=18.6x    frame= 9651 fps=446 q=-0.0 size=N/A time=00:06:42.52 bitrate=N/A speed=18.6x    frame= 9909 fps=447 q=-0.0 size=N/A time=00:06:53.28 bitrate=N/A speed=18.6x    frame=10173 fps=448 q=-0.0 size=N/A time=00:07:04.29 bitrate=N/A speed=18.7x    frame=10420 fps=449 q=-0.0 size=N/A time=00:07:14.60 bitrate=N/A speed=18.7x    frame=10676 fps=450 q=-0.0 size=N/A time=00:07:25.27 bitrate=N/A speed=18.8x    frame=10923 fps=451 q=-0.0 size=N/A time=00:07:35.62 bitrate=N/A speed=18.8x    frame=11209 fps=453 q=-0.0 size=N/A time=00:07:47.50 bitrate=N/A speed=18.9x    frame=11472 fps=454 q=-0.0 size=N/A time=00:07:58.47 bitrate=N/A speed=18.9x    frame=11730 fps=454 q=-0.0 size=N/A time=00:08:09.23 bitrate=N/A speed=  19x    frame=11950 fps=454 q=-0.0 size=N/A time=00:08:18.41 bitrate=N/A speed=18.9x    frame=12189 fps=454 q=-0.0 size=N/A time=00:08:28.38 bitrate=N/A speed=18.9x    frame=12415 fps=454 q=-0.0 size=N/A time=00:08:37.80 bitrate=N/A speed=18.9x    frame=12639 fps=453 q=-0.0 size=N/A time=00:08:47.15 bitrate=N/A speed=18.9x    frame=12840 fps=452 q=-0.0 size=N/A time=00:08:55.53 bitrate=N/A speed=18.9x    frame=13087 fps=453 q=-0.0 size=N/A time=00:09:05.87 bitrate=N/A speed=18.9x    frame=13296 fps=452 q=-0.0 size=N/A time=00:09:14.55 bitrate=N/A speed=18.9x    frame=13538 fps=452 q=-0.0 size=N/A time=00:09:24.64 bitrate=N/A speed=18.9x    frame=13749 fps=451 q=-0.0 size=N/A time=00:09:33.44 bitrate=N/A speed=18.8x    frame=13974 fps=451 q=-0.0 size=N/A time=00:09:42.83 bitrate=N/A speed=18.8x    frame=14192 fps=451 q=-0.0 size=N/A time=00:09:51.92 bitrate=N/A speed=18.8x    frame=14396 fps=450 q=-0.0 size=N/A time=00:10:00.43 bitrate=N/A speed=18.8x    frame=14627 fps=450 q=-0.0 size=N/A time=00:10:10.06 bitrate=N/A speed=18.8x    frame=14812 fps=448 q=-0.0 size=N/A time=00:10:17.78 bitrate=N/A speed=18.7x    frame=14999 fps=447 q=-0.0 size=N/A time=00:10:25.58 bitrate=N/A speed=18.7x    frame=15252 fps=448 q=-0.0 size=N/A time=00:10:36.13 bitrate=N/A speed=18.7x    frame=15496 fps=448 q=-0.0 size=N/A time=00:10:46.31 bitrate=N/A speed=18.7x    frame=15772 fps=449 q=-0.0 size=N/A time=00:10:57.82 bitrate=N/A speed=18.7x    frame=16004 fps=450 q=-0.0 size=N/A time=00:11:07.50 bitrate=N/A speed=18.8x    frame=16234 fps=449 q=-0.0 size=N/A time=00:11:17.09 bitrate=N/A speed=18.7x    frame=16510 fps=451 q=-0.0 size=N/A time=00:11:28.60 bitrate=N/A speed=18.8x    frame=16764 fps=451 q=-0.0 size=N/A time=00:11:39.19 bitrate=N/A speed=18.8x    frame=16980 fps=451 q=-0.0 size=N/A time=00:11:48.20 bitrate=N/A speed=18.8x    frame=17236 fps=451 q=-0.0 size=N/A time=00:11:58.88 bitrate=N/A speed=18.8x    frame=17495 fps=452 q=-0.0 size=N/A time=00:12:09.68 bitrate=N/A speed=18.8x    frame=17768 fps=453 q=-0.0 size=N/A time=00:12:21.07 bitrate=N/A speed=18.9x    frame=18016 fps=453 q=-0.0 size=N/A time=00:12:31.41 bitrate=N/A speed=18.9x    frame=18274 fps=454 q=-0.0 size=N/A time=00:12:42.17 bitrate=N/A speed=18.9x    frame=18491 fps=453 q=-0.0 size=N/A time=00:12:51.22 bitrate=N/A speed=18.9x    frame=18717 fps=453 q=-0.0 size=N/A time=00:13:00.65 bitrate=N/A speed=18.9x    frame=18957 fps=453 q=-0.0 size=N/A time=00:13:10.66 bitrate=N/A speed=18.9x    frame=19197 fps=454 q=-0.0 size=N/A time=00:13:20.67 bitrate=N/A speed=18.9x    frame=19463 fps=454 q=-0.0 size=N/A time=00:13:31.76 bitrate=N/A speed=18.9x    frame=19726 fps=455 q=-0.0 size=N/A time=00:13:42.73 bitrate=N/A speed=  19x    frame=19982 fps=456 q=-0.0 size=N/A time=00:13:53.41 bitrate=N/A speed=  19x    frame=20208 fps=455 q=-0.0 size=N/A time=00:14:02.84 bitrate=N/A speed=  19x    frame=20448 fps=455 q=-0.0 size=N/A time=00:14:12.85 bitrate=N/A speed=  19x    frame=20708 fps=456 q=-0.0 size=N/A time=00:14:23.69 bitrate=N/A speed=  19x    frame=20979 fps=457 q=-0.0 size=N/A time=00:14:34.99 bitrate=N/A speed=19.1x    frame=21239 fps=457 q=-0.0 size=N/A time=00:14:45.84 bitrate=N/A speed=19.1x    frame=21494 fps=458 q=-0.0 size=N/A time=00:14:56.47 bitrate=N/A speed=19.1x    frame=21750 fps=458 q=-0.0 size=N/A time=00:15:07.15 bitrate=N/A speed=19.1x    frame=21986 fps=458 q=-0.0 size=N/A time=00:15:16.99 bitrate=N/A speed=19.1x    frame=22226 fps=458 q=-0.0 size=N/A time=00:15:27.05 bitrate=N/A speed=19.1x    frame=22479 fps=458 q=-0.0 size=N/A time=00:15:37.56 bitrate=N/A speed=19.1x    frame=22726 fps=459 q=-0.0 size=N/A time=00:15:47.86 bitrate=N/A speed=19.1x    frame=22963 fps=459 q=-0.0 size=N/A time=00:15:57.74 bitrate=N/A speed=19.1x    frame=23216 fps=459 q=-0.0 size=N/A time=00:16:08.30 bitrate=N/A speed=19.1x    frame=23443 fps=459 q=-0.0 size=N/A time=00:16:17.76 bitrate=N/A speed=19.1x    frame=23690 fps=459 q=-0.0 size=N/A time=00:16:28.07 bitrate=N/A speed=19.1x    frame=23938 fps=459 q=-0.0 size=N/A time=00:16:38.41 bitrate=N/A speed=19.2x    frame=24200 fps=460 q=-0.0 size=N/A time=00:16:49.34 bitrate=N/A speed=19.2x    frame=24450 fps=460 q=-0.0 size=N/A time=00:16:59.76 bitrate=N/A speed=19.2x    frame=24715 fps=460 q=-0.0 size=N/A time=00:17:10.82 bitrate=N/A speed=19.2x    frame=24957 fps=460 q=-0.0 size=N/A time=00:17:20.91 bitrate=N/A speed=19.2x    frame=25157 fps=460 q=-0.0 size=N/A time=00:17:29.25 bitrate=N/A speed=19.2x    frame=25363 fps=459 q=-0.0 size=N/A time=00:17:37.84 bitrate=N/A speed=19.2x    frame=25566 fps=459 q=-0.0 size=N/A time=00:17:46.31 bitrate=N/A speed=19.1x    frame=25782 fps=458 q=-0.0 size=N/A time=00:17:55.32 bitrate=N/A speed=19.1x    frame=26038 fps=459 q=-0.0 size=N/A time=00:18:06.00 bitrate=N/A speed=19.1x    frame=26259 fps=458 q=-0.0 size=N/A time=00:18:15.21 bitrate=N/A speed=19.1x    frame=26494 fps=458 q=-0.0 size=N/A time=00:18:25.02 bitrate=N/A speed=19.1x    frame=26719 fps=458 q=-0.0 size=N/A time=00:18:34.40 bitrate=N/A speed=19.1x    frame=26954 fps=458 q=-0.0 size=N/A time=00:18:44.20 bitrate=N/A speed=19.1x    frame=27185 fps=458 q=-0.0 size=N/A time=00:18:53.84 bitrate=N/A speed=19.1x    frame=27390 fps=458 q=-0.0 size=N/A time=00:19:02.39 bitrate=N/A speed=19.1x    frame=27631 fps=458 q=-0.0 size=N/A time=00:19:12.44 bitrate=N/A speed=19.1x    frame=27855 fps=457 q=-0.0 size=N/A time=00:19:21.78 bitrate=N/A speed=19.1x    frame=28095 fps=457 q=-0.0 size=N/A time=00:19:31.79 bitrate=N/A speed=19.1x    frame=28326 fps=457 q=-0.0 size=N/A time=00:19:41.43 bitrate=N/A speed=19.1x    frame=28569 fps=458 q=-0.0 size=N/A time=00:19:51.56 bitrate=N/A speed=19.1x    frame=28832 fps=458 q=-0.0 size=N/A time=00:20:02.53 bitrate=N/A speed=19.1x    frame=29078 fps=458 q=-0.0 size=N/A time=00:20:12.79 bitrate=N/A speed=19.1x    frame=29325 fps=458 q=-0.0 size=N/A time=00:20:23.09 bitrate=N/A speed=19.1x    frame=29548 fps=458 q=-0.0 size=N/A time=00:20:32.39 bitrate=N/A speed=19.1x    frame=29783 fps=458 q=-0.0 size=N/A time=00:20:42.19 bitrate=N/A speed=19.1x    frame=30020 fps=458 q=-0.0 size=N/A time=00:20:52.08 bitrate=N/A speed=19.1x    frame=30280 fps=458 q=-0.0 size=N/A time=00:21:02.92 bitrate=N/A speed=19.1x    frame=30525 fps=459 q=-0.0 size=N/A time=00:21:13.14 bitrate=N/A speed=19.1x    frame=30759 fps=458 q=-0.0 size=N/A time=00:21:22.90 bitrate=N/A speed=19.1x    frame=30999 fps=459 q=-0.0 size=N/A time=00:21:32.91 bitrate=N/A speed=19.1x    frame=31253 fps=459 q=-0.0 size=N/A time=00:21:43.51 bitrate=N/A speed=19.1x    frame=31476 fps=459 q=-0.0 size=N/A time=00:21:52.81 bitrate=N/A speed=19.1x    frame=31745 fps=459 q=-0.0 size=N/A time=00:22:04.03 bitrate=N/A speed=19.1x    frame=31967 fps=459 q=-0.0 size=N/A time=00:22:13.29 bitrate=N/A speed=19.1x    frame=32236 fps=459 q=-0.0 size=N/A time=00:22:24.50 bitrate=N/A speed=19.2x    frame=32511 fps=460 q=-0.0 size=N/A time=00:22:35.97 bitrate=N/A speed=19.2x    frame=32797 fps=461 q=-0.0 size=N/A time=00:22:47.90 bitrate=N/A speed=19.2x    frame=33082 fps=461 q=-0.0 size=N/A time=00:22:59.79 bitrate=N/A speed=19.2x    frame=33368 fps=462 q=-0.0 size=N/A time=00:23:11.72 bitrate=N/A speed=19.3x    frame=33591 fps=462 q=-0.0 size=N/A time=00:23:21.02 bitrate=N/A speed=19.3x    frame=33791 fps=461 q=-0.0 size=N/A time=00:23:29.36 bitrate=N/A speed=19.2x    frame=34020 fps=461 q=-0.0 size=N/A time=00:23:38.91 bitrate=N/A speed=19.2x    [Parsed_psnr_10 @ 00000172161493c0] PSNR y:48.565364 u:51.649237 v:51.275173 average:49.333424 min:42.392243 max:inf
[out#0/null @ 0000017208bc4e80] video:14696KiB audio:267508KiB subtitle:0KiB other streams:0KiB global headers:0KiB muxing overhead: unknown
frame=34202 fps=461 q=-0.0 Lsize=N/A time=00:23:46.50 bitrate=N/A speed=19.2x    
